<svg width="130" height="130" viewBox="0 0 130 130" fill="none" xmlns="http://www.w3.org/2000/svg">
<path d="M0.17395 0.175781H6.34786V6.34969H0.17395V0.175781ZM6.34786 0.175781H12.5218V6.34969H6.34786V0.175781ZM12.5218 0.175781H18.6957V6.34969H12.5218V0.175781ZM18.6957 0.175781H24.8696V6.34969H18.6957V0.175781ZM24.8696 0.175781H31.0435V6.34969H24.8696V0.175781ZM31.0435 0.175781H37.2174V6.34969H31.0435V0.175781ZM37.2174 0.175781H43.3913V6.34969H37.2174V0.175781ZM61.9131 0.175781H68.087V6.34969H61.9131V0.175781ZM68.087 0.175781H74.2609V6.34969H68.087V0.175781ZM74.2609 0.175781H80.4348V6.34969H74.2609V0.175781ZM86.6087 0.175781H92.7826V6.34969H86.6087V0.175781ZM92.7826 0.175781H98.9566V6.34969H92.7826V0.175781ZM98.9566 0.175781H105.13V6.34969H98.9566V0.175781ZM105.13 0.175781H111.304V6.34969H105.13V0.175781ZM111.304 0.175781H117.478V6.34969H111.304V0.175781ZM117.478 0.175781H123.652V6.34969H117.478V0.175781ZM123.652 0.175781H129.826V6.34969H123.652V0.175781ZM0.17395 6.34969H6.34786V12.5236H0.17395V6.34969ZM37.2174 6.34969H43.3913V12.5236H37.2174V6.34969ZM49.5653 6.34969H55.7392V12.5236H49.5653V6.34969ZM55.7392 6.34969H61.9131V12.5236H55.7392V6.34969ZM61.9131 6.34969H68.087V12.5236H61.9131V6.34969ZM74.2609 6.34969H80.4348V12.5236H74.2609V6.34969ZM86.6087 6.34969H92.7826V12.5236H86.6087V6.34969ZM123.652 6.34969H129.826V12.5236H123.652V6.34969ZM0.17395 12.5236H6.34786V18.6975H0.17395V12.5236ZM12.5218 12.5236H18.6957V18.6975H12.5218V12.5236ZM18.6957 12.5236H24.8696V18.6975H18.6957V12.5236ZM24.8696 12.5236H31.0435V18.6975H24.8696V12.5236ZM37.2174 12.5236H43.3913V18.6975H37.2174V12.5236ZM61.9131 12.5236H68.087V18.6975H61.9131V12.5236ZM68.087 12.5236H74.2609V18.6975H68.087V12.5236ZM74.2609 12.5236H80.4348V18.6975H74.2609V12.5236ZM86.6087 12.5236H92.7826V18.6975H86.6087V12.5236ZM98.9566 12.5236H105.13V18.6975H98.9566V12.5236ZM105.13 12.5236H111.304V18.6975H105.13V12.5236ZM111.304 12.5236H117.478V18.6975H111.304V12.5236ZM123.652 12.5236H129.826V18.6975H123.652V12.5236ZM0.17395 18.6975H6.34786V24.8714H0.17395V18.6975ZM12.5218 18.6975H18.6957V24.8714H12.5218V18.6975ZM18.6957 18.6975H24.8696V24.8714H18.6957V18.6975ZM24.8696 18.6975H31.0435V24.8714H24.8696V18.6975ZM37.2174 18.6975H43.3913V24.8714H37.2174V18.6975ZM49.5653 18.6975H55.7392V24.8714H49.5653V18.6975ZM55.7392 18.6975H61.9131V24.8714H55.7392V18.6975ZM74.2609 18.6975H80.4348V24.8714H74.2609V18.6975ZM86.6087 18.6975H92.7826V24.8714H86.6087V18.6975ZM98.9566 18.6975H105.13V24.8714H98.9566V18.6975ZM105.13 18.6975H111.304V24.8714H105.13V18.6975ZM111.304 18.6975H117.478V24.8714H111.304V18.6975ZM123.652 18.6975H129.826V24.8714H123.652V18.6975ZM0.17395 24.8714H6.34786V31.0453H0.17395V24.8714ZM12.5218 24.8714H18.6957V31.0453H12.5218V24.8714ZM18.6957 24.8714H24.8696V31.0453H18.6957V24.8714ZM24.8696 24.8714H31.0435V31.0453H24.8696V24.8714ZM37.2174 24.8714H43.3913V31.0453H37.2174V24.8714ZM55.7392 24.8714H61.9131V31.0453H55.7392V24.8714ZM74.2609 24.8714H80.4348V31.0453H74.2609V24.8714ZM86.6087 24.8714H92.7826V31.0453H86.6087V24.8714ZM98.9566 24.8714H105.13V31.0453H98.9566V24.8714ZM105.13 24.8714H111.304V31.0453H105.13V24.8714ZM111.304 24.8714H117.478V31.0453H111.304V24.8714ZM123.652 24.8714H129.826V31.0453H123.652V24.8714ZM0.17395 31.0453H6.34786V37.2193H0.17395V31.0453ZM37.2174 31.0453H43.3913V37.2193H37.2174V31.0453ZM49.5653 31.0453H55.7392V37.2193H49.5653V31.0453ZM68.087 31.0453H74.2609V37.2193H68.087V31.0453ZM86.6087 31.0453H92.7826V37.2193H86.6087V31.0453ZM123.652 31.0453H129.826V37.2193H123.652V31.0453ZM0.17395 37.2193H6.34786V43.3932H0.17395V37.2193ZM6.34786 37.2193H12.5218V43.3932H6.34786V37.2193ZM12.5218 37.2193H18.6957V43.3932H12.5218V37.2193ZM18.6957 37.2193H24.8696V43.3932H18.6957V37.2193ZM24.8696 37.2193H31.0435V43.3932H24.8696V37.2193ZM31.0435 37.2193H37.2174V43.3932H31.0435V37.2193ZM37.2174 37.2193H43.3913V43.3932H37.2174V37.2193ZM49.5653 37.2193H55.7392V43.3932H49.5653V37.2193ZM61.9131 37.2193H68.087V43.3932H61.9131V37.2193ZM74.2609 37.2193H80.4348V43.3932H74.2609V37.2193ZM86.6087 37.2193H92.7826V43.3932H86.6087V37.2193ZM92.7826 37.2193H98.9566V43.3932H92.7826V37.2193ZM98.9566 37.2193H105.13V43.3932H98.9566V37.2193ZM105.13 37.2193H111.304V43.3932H105.13V37.2193ZM111.304 37.2193H117.478V43.3932H111.304V37.2193ZM117.478 37.2193H123.652V43.3932H117.478V37.2193ZM123.652 37.2193H129.826V43.3932H123.652V37.2193ZM55.7392 43.3932H61.9131V49.5671H55.7392V43.3932ZM0.17395 49.5671H6.34786V55.741H0.17395V49.5671ZM6.34786 49.5671H12.5218V55.741H6.34786V49.5671ZM12.5218 49.5671H18.6957V55.741H12.5218V49.5671ZM18.6957 49.5671H24.8696V55.741H18.6957V49.5671ZM24.8696 49.5671H31.0435V55.741H24.8696V49.5671ZM37.2174 49.5671H43.3913V55.741H37.2174V49.5671ZM43.3913 49.5671H49.5653V55.741H43.3913V49.5671ZM49.5653 49.5671H55.7392V55.741H49.5653V49.5671ZM68.087 49.5671H74.2609V55.741H68.087V49.5671ZM80.4348 49.5671H86.6087V55.741H80.4348V49.5671ZM92.7826 49.5671H98.9566V55.741H92.7826V49.5671ZM105.13 49.5671H111.304V55.741H105.13V49.5671ZM117.478 49.5671H123.652V55.741H117.478V49.5671ZM49.5653 55.741H55.7392V61.9149H49.5653V55.741ZM61.9131 55.741H68.087V61.9149H61.9131V55.741ZM68.087 55.741H74.2609V61.9149H68.087V55.741ZM74.2609 55.741H80.4348V61.9149H74.2609V55.741ZM80.4348 55.741H86.6087V61.9149H80.4348V55.741ZM86.6087 55.741H92.7826V61.9149H86.6087V55.741ZM92.7826 55.741H98.9566V61.9149H92.7826V55.741ZM105.13 55.741H111.304V61.9149H105.13V55.741ZM111.304 55.741H117.478V61.9149H111.304V55.741ZM123.652 55.741H129.826V61.9149H123.652V55.741ZM12.5218 61.9149H18.6957V68.0888H12.5218V61.9149ZM18.6957 61.9149H24.8696V68.0888H18.6957V61.9149ZM37.2174 61.9149H43.3913V68.0888H37.2174V61.9149ZM49.5653 61.9149H55.7392V68.0888H49.5653V61.9149ZM74.2609 61.9149H80.4348V68.0888H74.2609V61.9149ZM86.6087 61.9149H92.7826V68.0888H86.6087V61.9149ZM92.7826 61.9149H98.9566V68.0888H92.7826V61.9149ZM105.13 61.9149H111.304V68.0888H105.13V61.9149ZM111.304 61.9149H117.478V68.0888H111.304V61.9149ZM117.478 61.9149H123.652V68.0888H117.478V61.9149ZM123.652 61.9149H129.826V68.0888H123.652V61.9149ZM31.0435 68.0888H37.2174V74.2627H31.0435V68.0888ZM43.3913 68.0888H49.5653V74.2627H43.3913V68.0888ZM49.5653 68.0888H55.7392V74.2627H49.5653V68.0888ZM61.9131 68.0888H68.087V74.2627H61.9131V68.0888ZM68.087 68.0888H74.2609V74.2627H68.087V68.0888ZM74.2609 68.0888H80.4348V74.2627H74.2609V68.0888ZM80.4348 68.0888H86.6087V74.2627H80.4348V68.0888ZM86.6087 68.0888H92.7826V74.2627H86.6087V68.0888ZM92.7826 68.0888H98.9566V74.2627H92.7826V68.0888ZM111.304 68.0888H117.478V74.2627H111.304V68.0888ZM117.478 68.0888H123.652V74.2627H117.478V68.0888ZM123.652 68.0888H129.826V74.2627H123.652V68.0888ZM6.34786 74.2627H12.5218V80.4367H6.34786V74.2627ZM12.5218 74.2627H18.6957V80.4367H12.5218V74.2627ZM18.6957 74.2627H24.8696V80.4367H18.6957V74.2627ZM37.2174 74.2627H43.3913V80.4367H37.2174V74.2627ZM43.3913 74.2627H49.5653V80.4367H43.3913V74.2627ZM49.5653 74.2627H55.7392V80.4367H49.5653V74.2627ZM74.2609 74.2627H80.4348V80.4367H74.2609V74.2627ZM92.7826 74.2627H98.9566V80.4367H92.7826V74.2627ZM111.304 74.2627H117.478V80.4367H111.304V74.2627ZM123.652 74.2627H129.826V80.4367H123.652V74.2627ZM49.5653 80.4367H55.7392V86.6106H49.5653V80.4367ZM61.9131 80.4367H68.087V86.6106H61.9131V80.4367ZM74.2609 80.4367H80.4348V86.6106H74.2609V80.4367ZM92.7826 80.4367H98.9566V86.6106H92.7826V80.4367ZM98.9566 80.4367H105.13V86.6106H98.9566V80.4367ZM123.652 80.4367H129.826V86.6106H123.652V80.4367ZM0.17395 86.6106H6.34786V92.7845H0.17395V86.6106ZM6.34786 86.6106H12.5218V92.7845H6.34786V86.6106ZM12.5218 86.6106H18.6957V92.7845H12.5218V86.6106ZM18.6957 86.6106H24.8696V92.7845H18.6957V86.6106ZM24.8696 86.6106H31.0435V92.7845H24.8696V86.6106ZM31.0435 86.6106H37.2174V92.7845H31.0435V86.6106ZM37.2174 86.6106H43.3913V92.7845H37.2174V86.6106ZM49.5653 86.6106H55.7392V92.7845H49.5653V86.6106ZM68.087 86.6106H74.2609V92.7845H68.087V86.6106ZM80.4348 86.6106H86.6087V92.7845H80.4348V86.6106ZM105.13 86.6106H111.304V92.7845H105.13V86.6106ZM111.304 86.6106H117.478V92.7845H111.304V86.6106ZM123.652 86.6106H129.826V92.7845H123.652V86.6106ZM0.17395 92.7845H6.34786V98.9584H0.17395V92.7845ZM37.2174 92.7845H43.3913V98.9584H37.2174V92.7845ZM55.7392 92.7845H61.9131V98.9584H55.7392V92.7845ZM61.9131 92.7845H68.087V98.9584H61.9131V92.7845ZM98.9566 92.7845H105.13V98.9584H98.9566V92.7845ZM105.13 92.7845H111.304V98.9584H105.13V92.7845ZM111.304 92.7845H117.478V98.9584H111.304V92.7845ZM0.17395 98.9584H6.34786V105.132H0.17395V98.9584ZM12.5218 98.9584H18.6957V105.132H12.5218V98.9584ZM18.6957 98.9584H24.8696V105.132H18.6957V98.9584ZM24.8696 98.9584H31.0435V105.132H24.8696V98.9584ZM37.2174 98.9584H43.3913V105.132H37.2174V98.9584ZM49.5653 98.9584H55.7392V105.132H49.5653V98.9584ZM55.7392 98.9584H61.9131V105.132H55.7392V98.9584ZM68.087 98.9584H74.2609V105.132H68.087V98.9584ZM80.4348 98.9584H86.6087V105.132H80.4348V98.9584ZM92.7826 98.9584H98.9566V105.132H92.7826V98.9584ZM98.9566 98.9584H105.13V105.132H98.9566V98.9584ZM117.478 98.9584H123.652V105.132H117.478V98.9584ZM0.17395 105.132H6.34786V111.306H0.17395V105.132ZM12.5218 105.132H18.6957V111.306H12.5218V105.132ZM18.6957 105.132H24.8696V111.306H18.6957V105.132ZM24.8696 105.132H31.0435V111.306H24.8696V105.132ZM37.2174 105.132H43.3913V111.306H37.2174V105.132ZM49.5653 105.132H55.7392V111.306H49.5653V105.132ZM55.7392 105.132H61.9131V111.306H55.7392V105.132ZM61.9131 105.132H68.087V111.306H61.9131V105.132ZM68.087 105.132H74.2609V111.306H68.087V105.132ZM74.2609 105.132H80.4348V111.306H74.2609V105.132ZM80.4348 105.132H86.6087V111.306H80.4348V105.132ZM86.6087 105.132H92.7826V111.306H86.6087V105.132ZM98.9566 105.132H105.13V111.306H98.9566V105.132ZM0.17395 111.306H6.34786V117.48H0.17395V111.306ZM12.5218 111.306H18.6957V117.48H12.5218V111.306ZM18.6957 111.306H24.8696V117.48H18.6957V111.306ZM24.8696 111.306H31.0435V117.48H24.8696V111.306ZM37.2174 111.306H43.3913V117.48H37.2174V111.306ZM49.5653 111.306H55.7392V117.48H49.5653V111.306ZM55.7392 111.306H61.9131V117.48H55.7392V111.306ZM61.9131 111.306H68.087V117.48H61.9131V111.306ZM74.2609 111.306H80.4348V117.48H74.2609V111.306ZM86.6087 111.306H92.7826V117.48H86.6087V111.306ZM92.7826 111.306H98.9566V117.48H92.7826V111.306ZM0.17395 117.48H6.34786V123.654H0.17395V117.48ZM37.2174 117.48H43.3913V123.654H37.2174V117.48ZM49.5653 117.48H55.7392V123.654H49.5653V117.48ZM68.087 117.48H74.2609V123.654H68.087V117.48ZM74.2609 117.48H80.4348V123.654H74.2609V117.48ZM80.4348 117.48H86.6087V123.654H80.4348V117.48ZM86.6087 117.48H92.7826V123.654H86.6087V117.48ZM123.652 117.48H129.826V123.654H123.652V117.48ZM0.17395 123.654H6.34786V129.828H0.17395V123.654ZM6.34786 123.654H12.5218V129.828H6.34786V123.654ZM12.5218 123.654H18.6957V129.828H12.5218V123.654ZM18.6957 123.654H24.8696V129.828H18.6957V123.654ZM24.8696 123.654H31.0435V129.828H24.8696V123.654ZM31.0435 123.654H37.2174V129.828H31.0435V123.654ZM37.2174 123.654H43.3913V129.828H37.2174V123.654ZM49.5653 123.654H55.7392V129.828H49.5653V123.654ZM55.7392 123.654H61.9131V129.828H55.7392V123.654ZM61.9131 123.654H68.087V129.828H61.9131V123.654ZM74.2609 123.654H80.4348V129.828H74.2609V123.654ZM92.7826 123.654H98.9566V129.828H92.7826V123.654ZM98.9566 123.654H105.13V129.828H98.9566V123.654Z" fill="black"/>
</svg>
